# xmcd
#
# Track frame offsets:
#	150
#	13807
#	28002
#	44817
#	62735
#	81460
#	96252
#	112612
#	126937
#	145295
#	157715
#	174337
#	186687
#	201095
#	217772
#	229245
#
# Disc length: 3224
#
# Revision: 3
# Processed by: cddbd v1.5.1PL0 Copyright (c) Steve Scherf et al.
# Submitted via: CDex 1.50
# Normalized: r2:DSETVAR1
#
DISCID=e00c9610
DTITLE=Various Artist - 90s Hot Country
DYEAR=1998
DGENRE=Country
TTITLE0=Terri Clark - When Boy Meets Girl
TTITLE1=Randy Travis - Whisper My Name
TTITLE2=Confederate Railroad - Daddy Never Was The Cadillac Kind
TTITLE3=Ricky Skaggs - Cats In The Cradle
TTITLE4=Tanya Tucker - Two Sparrows In A Hurricane
TTITLE5=Aaron Tippin - That's As Close As I'll Get To Loving You
TTITLE6=Boy Howdy - She'd Give Anything (To Fall In Love)
TTITLE7=Doug Supernaw - Not Enough Hours In The Night
TTITLE8=Little Texas - My Love
TTITLE9=Pam Tillis - When You Walk In The Room
TTITLE10=Mark Collie - Even The Man In The Moon Is Crying
TTITLE11=Mila Mason - That's Enough Of That
TTITLE12=Diamond Rio - Love A Little Stronger
TTITLE13=John Anderson - Honky Tonk Crowd
TTITLE14=Sawyer Brown - Trouble On The Line
TTITLE15=Holly Dumm - You Really Had Me Going
EXTD=YEAR: 1998
EXTT0=
EXTT1=
EXTT2=
EXTT3=
EXTT4=
EXTT5=
EXTT6=
EXTT7=
EXTT8=
EXTT9=
EXTT10=
EXTT11=
EXTT12=
EXTT13=
EXTT14=
EXTT15=
PLAYORDER=
